<svg width="191" height="170" viewBox="0 0 191 170" fill="none" xmlns="http://www.w3.org/2000/svg">
<path fill-rule="evenodd" clip-rule="evenodd" d="M79.7253 76.5559L7.07031 113.231L114.182 167.296L186.837 130.622L79.7253 76.5559Z" fill="#2C6787"/>
<path fill-rule="evenodd" clip-rule="evenodd" d="M79.7253 74.5781L7.07031 111.253L114.182 165.318L186.837 128.644L79.7253 74.5781Z" fill="#3976BB"/>
<path fill-rule="evenodd" clip-rule="evenodd" d="M186.837 130.622V128.644L114.182 165.318V167.296L186.837 130.622Z" fill="#4586D2"/>
<path fill-rule="evenodd" clip-rule="evenodd" d="M9.17338 112.168C6.60555 109.379 7.3217 98.8618 9.17338 93.2972C8.3091 93.7338 7.93386 93.9226 7.07007 94.3591C2.62898 99.6233 2.28072 110.015 7.07007 113.23C7.93386 112.794 8.3091 112.605 9.17338 112.168Z" fill="#005D70"/>
<path fill-rule="evenodd" clip-rule="evenodd" d="M7.07031 113.231V94.3596L114.182 148.426C110.922 155.667 110.23 162.158 114.182 167.297L7.07031 113.231Z" fill="#26548B"/>
<path fill-rule="evenodd" clip-rule="evenodd" d="M183.797 127.109C181.798 124.385 181.806 120.431 183.797 115.263L112.461 151.241C111.297 155.396 111.185 159.364 112.461 163.087L183.797 127.109Z" fill="white"/>
<path fill-rule="evenodd" clip-rule="evenodd" d="M116.285 166.234C110.555 164.41 111.564 153.803 116.285 147.363C115.421 147.8 115.045 147.989 114.182 148.425C109.721 154.231 109.072 164.592 114.182 167.296C115.045 166.86 115.421 166.671 116.285 166.234Z" fill="#4586D2"/>
<path fill-rule="evenodd" clip-rule="evenodd" d="M186.837 113.729V111.751L114.182 148.425V150.403L186.837 113.729Z" fill="#4586D2"/>
<path fill-rule="evenodd" clip-rule="evenodd" d="M79.7253 57.6848L7.07031 94.3591L114.182 148.425L186.837 111.751L79.7253 57.6848Z" fill="#539AEE"/>
<path opacity="0.2" fill-rule="evenodd" clip-rule="evenodd" d="M88.4663 62.097L28.1133 92.5618L118.625 138.249L178.978 107.784L88.4663 62.097Z" fill="black"/>
<path fill-rule="evenodd" clip-rule="evenodd" d="M91.8299 63.795L34.4014 92.7834L119.066 135.518L176.494 106.53L91.8299 63.795Z" fill="#2C6787"/>
<path fill-rule="evenodd" clip-rule="evenodd" d="M91.8299 62.2317L34.4014 91.2201L119.066 133.955L176.494 104.967L91.8299 62.2317Z" fill="#FFDD65"/>
<path fill-rule="evenodd" clip-rule="evenodd" d="M176.494 106.53V104.967L119.065 133.955V135.518L176.494 106.53Z" fill="#F7BA40"/>
<path fill-rule="evenodd" clip-rule="evenodd" d="M36.064 91.9438C34.0343 89.7394 34.6003 81.4263 36.064 77.0278C35.3812 77.3729 35.0844 77.5224 34.4017 77.8675C30.8911 82.0285 30.6159 90.2419 34.4017 92.7835C35.0844 92.4384 35.3807 92.2889 36.064 91.9438Z" fill="#F0A716"/>
<path fill-rule="evenodd" clip-rule="evenodd" d="M34.4014 92.7834V77.8674L119.066 120.603C116.488 126.326 115.942 131.458 119.066 135.519L34.4014 92.7834Z" fill="#F8AA37"/>
<path fill-rule="evenodd" clip-rule="evenodd" d="M174.091 103.754C172.511 101.6 172.518 98.4748 174.091 94.39L117.705 122.827C116.785 126.112 116.696 129.248 117.705 132.191L174.091 103.754Z" fill="white"/>
<path fill-rule="evenodd" clip-rule="evenodd" d="M120.728 134.679C116.199 133.237 116.997 124.853 120.728 119.763C120.045 120.108 119.749 120.257 119.066 120.602C115.541 125.191 115.027 133.381 119.066 135.518C119.748 135.174 120.045 135.024 120.728 134.679Z" fill="#F7BA40"/>
<path fill-rule="evenodd" clip-rule="evenodd" d="M176.494 93.1772V91.6139L119.065 120.602V122.166L176.494 93.1772Z" fill="#F7BA40"/>
<path fill-rule="evenodd" clip-rule="evenodd" d="M91.8299 48.8785L34.4014 77.8669L119.066 120.602L176.494 91.6139L91.8299 48.8785Z" fill="#F9CF38"/>
<path fill-rule="evenodd" clip-rule="evenodd" d="M96.1883 60.3572L57.1411 80.0669L65.6113 84.3424L104.659 64.6322L96.1883 60.3572Z" fill="#FFE8BA"/>
<path opacity="0.2" fill-rule="evenodd" clip-rule="evenodd" d="M86.632 78.1993L85.8325 78.6846L85.832 78.6841C83.9411 79.8315 82.0492 80.9794 80.1553 82.1268L79.939 82.2581L79.7428 82.3771L77.8332 83.5333C74.899 85.309 71.9633 87.0862 69.0285 88.8639L68.2285 89.3486C73.6761 92.2668 78.8064 95.0208 84.2614 97.939C89.7134 100.856 94.8137 103.588 100.267 106.506C106.403 102.796 112.535 99.0791 118.665 95.3595C107.874 89.5733 97.4267 83.9812 86.632 78.1993Z" fill="black"/>
<path opacity="0.2" fill-rule="evenodd" clip-rule="evenodd" d="M77.7335 59.6906L69.7563 63.7036L150.075 104.245L158.052 100.232L77.7335 59.6906Z" fill="black"/>
<path fill-rule="evenodd" clip-rule="evenodd" d="M75.6252 1.97829C87.7457 8.14016 99.8819 14.3055 112.002 20.4688C124.122 26.6326 136.259 32.8073 148.387 38.9706C151.125 40.3619 153.376 43.933 153.376 46.8831C153.376 55.6491 153.376 64.4047 153.376 73.1603C153.376 81.9159 153.376 90.6818 153.376 99.4266C153.376 102.387 151.125 103.652 148.387 102.261C136.259 96.0979 124.12 89.9267 112.002 83.7698C99.8795 77.6104 87.7447 71.4327 75.6252 65.2787C72.8867 63.8885 70.6445 60.3376 70.6445 57.3766C70.6445 48.621 70.6445 39.8659 70.6445 31.1102C70.6445 22.3546 70.6445 13.5887 70.6445 4.82276C70.6445 1.87259 72.8872 0.586045 75.6252 1.97829Z" fill="#071317"/>
<path fill-rule="evenodd" clip-rule="evenodd" d="M72.2817 1.66419L75.0188 0.294067L154.543 101.165L151.806 102.537L72.2817 1.66419Z" fill="#071317"/>
<path fill-rule="evenodd" clip-rule="evenodd" d="M78.4352 0.56199C90.5558 6.72386 102.692 12.8892 114.812 19.0525C126.932 25.2163 139.069 31.391 151.197 37.5538C153.935 38.9451 156.186 42.5162 156.186 45.4663C156.186 54.2323 156.186 62.9884 156.186 71.7435C156.186 80.4986 156.186 89.2645 156.186 98.0098C156.186 100.97 153.935 102.235 151.197 100.843C139.068 94.6806 126.93 88.5099 114.812 82.3525C102.69 76.1931 90.5548 70.015 78.4352 63.8615C75.6967 62.4712 73.4551 58.9203 73.4551 55.9598C73.4551 47.2042 73.4551 38.4491 73.4551 29.693C73.4551 20.9373 73.4551 12.1714 73.4551 3.40547C73.4551 0.456292 75.6977 -0.830255 78.4352 0.56199Z" fill="#071317"/>
<path fill-rule="evenodd" clip-rule="evenodd" d="M75.7822 3.053C87.8532 9.19323 99.9335 15.334 112.002 21.4698C124.074 27.6085 136.15 33.7463 148.23 39.887C150.471 41.0266 152.3 43.933 152.3 46.3562C152.3 55.1118 152.3 63.8669 152.3 72.622C152.3 81.3673 152.3 90.1224 152.3 98.8785C152.3 101.291 150.471 102.334 148.23 101.196C136.151 95.0646 124.07 88.9258 112.002 82.79C99.9291 76.6517 87.8532 70.5135 75.7822 64.3727C73.541 63.2327 71.7119 60.3268 71.7119 57.9139C71.7119 49.1583 71.7119 40.4032 71.7119 31.6471C71.7119 22.8915 71.7119 14.1364 71.7119 5.38078C71.7119 2.95812 73.5415 1.91295 75.7822 3.053Z" fill="#344247"/>
<path fill-rule="evenodd" clip-rule="evenodd" d="M77.5859 6.84576C88.9202 12.6084 100.26 18.3868 111.597 24.1461C122.929 29.9029 134.282 35.6729 145.624 41.4356C145.624 50.6651 145.624 59.8951 145.624 69.1138C145.624 78.3434 145.624 87.5729 145.624 96.8024C134.282 91.0284 122.931 85.2657 111.597 79.5021C100.263 73.7384 88.9202 67.9758 77.5859 62.2126C77.5859 52.9831 77.5859 43.7535 77.5859 34.5235C77.5859 25.3048 77.5859 16.0753 77.5859 6.84576Z" fill="white"/>
<path fill-rule="evenodd" clip-rule="evenodd" d="M73.3911 39.36C73.3911 34.7875 73.3911 30.2151 73.3911 25.6318C73.3911 25.2631 73.6722 25.1048 74.0116 25.2734C74.3594 25.4523 74.6405 25.8948 74.6405 26.264C74.6405 30.8473 74.6405 35.4198 74.6405 39.9922C74.6405 40.3713 74.3594 40.5404 74.0116 40.3609C73.6722 40.1923 73.3911 39.7395 73.3911 39.36Z" fill="#071317"/>
<path fill-rule="evenodd" clip-rule="evenodd" d="M147.204 70.0198C147.204 68.7559 148.152 68.2131 149.322 68.808C150.493 69.4033 151.44 70.9047 151.44 72.1686C151.44 73.4331 150.493 73.9758 149.322 73.3805C148.152 72.7856 147.204 71.2842 147.204 70.0198Z" fill="#071317"/>
<path fill-rule="evenodd" clip-rule="evenodd" d="M98.5996 19.9738C102.926 22.1757 107.268 24.3929 111.597 26.5904C115.922 28.786 120.267 30.9943 124.602 33.1962C124.602 34.7556 124.602 36.3253 124.602 37.8847C120.267 35.6828 115.922 33.474 111.597 31.2784C107.268 29.0809 102.926 26.8638 98.5996 24.6618C98.5996 23.1029 98.5996 21.5332 98.5996 19.9738Z" fill="#539AEE"/>
<path fill-rule="evenodd" clip-rule="evenodd" d="M83.6665 22.5444C92.974 27.2747 102.287 32.0104 111.597 36.7471C120.902 41.4818 130.228 46.219 139.544 50.9498C139.544 55.2592 139.544 59.5579 139.544 63.8566C130.228 59.1258 120.902 54.3886 111.597 49.6539C102.287 44.9167 92.974 40.182 83.6665 35.4512C83.6665 31.1526 83.6665 26.8539 83.6665 22.5444Z" fill="#FFE070"/>
<path fill-rule="evenodd" clip-rule="evenodd" d="M94.3965 26.3166C100.13 29.2353 105.863 32.1431 111.596 35.0614C117.329 37.9801 123.071 40.8983 128.813 43.817C128.813 43.1636 128.813 42.5103 128.813 41.8466C123.071 38.9284 117.327 36.0136 111.596 33.1018C105.861 30.1875 100.13 27.2649 94.3965 24.357C94.3965 25.0207 94.3965 25.6632 94.3965 26.3166Z" fill="#344247"/>
<path fill-rule="evenodd" clip-rule="evenodd" d="M87.0503 50.1913C91.7244 52.5618 96.399 54.9432 101.081 57.3241C101.081 53.8474 101.081 50.3702 101.081 46.8931C96.3985 44.5122 91.7244 42.1411 87.0503 39.7603C87.0503 43.2374 87.0503 46.7141 87.0503 50.1913Z" fill="#85B9FF"/>
<path fill-rule="evenodd" clip-rule="evenodd" d="M104.589 59.1046C109.264 61.4752 113.938 63.856 118.62 66.2374C118.62 62.7607 118.62 59.2835 118.62 55.8064C113.938 53.4358 109.263 51.0545 104.589 48.6736C104.589 52.1508 104.589 55.6279 104.589 59.1046Z" fill="#48505F"/>
<path fill-rule="evenodd" clip-rule="evenodd" d="M122.128 68.018C126.803 70.3994 131.477 72.7699 136.16 75.1508C136.16 71.6741 136.16 68.1969 136.16 64.7306C131.477 62.3492 126.803 59.9683 122.128 57.5978C122.128 61.0641 122.128 64.5413 122.128 68.018Z" fill="#F9CF38"/>
<path fill-rule="evenodd" clip-rule="evenodd" d="M87.0503 53.5839C91.7244 55.9545 96.399 58.3358 101.081 60.7167C101.081 60.0634 101.081 59.41 101.081 58.7463C96.3985 56.365 91.7244 53.9944 87.0503 51.613C87.0503 52.2772 87.0503 52.9306 87.0503 53.5839Z" fill="#344247"/>
<path fill-rule="evenodd" clip-rule="evenodd" d="M87.0503 56.9553C91.7244 59.3258 96.399 61.7072 101.081 64.0881C101.081 63.4347 101.081 62.7814 101.081 62.1285C96.3985 59.7472 91.7244 57.3663 87.0503 54.9957C87.0503 55.6491 87.0503 56.3019 87.0503 56.9553Z" fill="#344247"/>
<path fill-rule="evenodd" clip-rule="evenodd" d="M87.0503 60.3268C91.7244 62.6974 96.399 65.0787 101.081 67.4596C101.081 66.8063 101.081 66.1529 101.081 65.4892C96.3985 63.1079 91.7244 60.727 87.0503 58.3564C87.0503 59.0206 87.0503 59.6735 87.0503 60.3268Z" fill="#344247"/>
<path fill-rule="evenodd" clip-rule="evenodd" d="M87.0503 63.6982C90.012 65.205 92.9737 66.7113 95.9359 68.2181C95.9359 67.5647 95.9359 66.9119 95.9359 66.2585C92.9742 64.7517 90.0125 63.2454 87.0503 61.7386C87.0503 62.392 87.0503 63.0454 87.0503 63.6982Z" fill="#344247"/>
<path fill-rule="evenodd" clip-rule="evenodd" d="M104.589 62.4972C109.264 64.8678 113.938 67.2492 118.62 69.63C118.62 68.9767 118.62 68.3238 118.62 67.6597C113.938 65.2891 109.263 62.9077 104.589 60.5269C104.589 61.1905 104.589 61.8439 104.589 62.4972Z" fill="#344247"/>
<path fill-rule="evenodd" clip-rule="evenodd" d="M104.589 65.8687C109.264 68.2393 113.938 70.6207 118.62 73.0015C118.62 72.3482 118.62 71.6948 118.62 71.042C113.938 68.6606 109.263 66.2797 104.589 63.9092C104.589 64.5625 104.589 65.2159 104.589 65.8687Z" fill="#344247"/>
<path fill-rule="evenodd" clip-rule="evenodd" d="M104.589 69.2402C109.264 71.6107 113.938 73.9921 118.62 76.373C118.62 75.7196 118.62 75.0663 118.62 74.4026C113.938 72.0212 109.263 69.6403 104.589 67.2698C104.589 67.9339 104.589 68.5873 104.589 69.2402Z" fill="#344247"/>
<path fill-rule="evenodd" clip-rule="evenodd" d="M104.589 72.6122C107.551 74.1189 110.513 75.6252 113.474 77.132C113.474 76.4787 113.474 75.8253 113.474 75.1725C110.513 73.6657 107.551 72.1589 104.589 70.6526C104.589 71.3054 104.589 71.9588 104.589 72.6122Z" fill="#344247"/>
<path fill-rule="evenodd" clip-rule="evenodd" d="M122.128 71.4107C126.803 73.7921 131.477 76.1622 136.16 78.5435C136.16 77.8902 136.16 77.2373 136.16 76.584C131.477 74.2026 126.803 71.8217 122.128 69.4512C122.128 70.1045 122.128 70.7579 122.128 71.4107Z" fill="#344247"/>
<path fill-rule="evenodd" clip-rule="evenodd" d="M122.128 74.7826C126.803 77.1639 131.477 79.5345 136.16 81.9154C136.16 81.262 136.16 80.6087 136.16 79.9553C131.477 77.5744 126.803 75.2034 122.128 72.8225C122.128 73.4759 122.128 74.1287 122.128 74.7826Z" fill="#344247"/>
<path fill-rule="evenodd" clip-rule="evenodd" d="M122.128 78.1536C126.803 80.535 131.477 82.9055 136.16 85.2869C136.16 84.6335 136.16 83.9802 136.16 83.3165C131.477 80.9351 126.803 78.5646 122.128 76.1837C122.128 76.8474 122.128 77.5007 122.128 78.1536Z" fill="#344247"/>
<path fill-rule="evenodd" clip-rule="evenodd" d="M122.128 81.5256C125.09 83.0324 128.052 84.5392 131.014 86.0455C131.014 85.3921 131.014 84.7388 131.014 84.0859C128.052 82.5791 125.09 81.0723 122.128 79.5656C122.128 80.2189 122.128 80.8723 122.128 81.5256Z" fill="#344247"/>
<path fill-rule="evenodd" clip-rule="evenodd" d="M134.356 53.5101C134.281 53.3729 134.298 53.2466 134.397 53.2254C134.496 53.2146 134.637 53.2992 134.711 53.4255C135.092 54.0892 135.473 54.7425 135.853 55.3959C135.853 55.4062 135.862 55.417 135.87 55.4382C135.878 55.4485 135.878 55.4485 135.878 55.4593C135.878 55.4701 135.878 55.4701 135.887 55.4804C135.887 55.4913 135.887 55.4913 135.895 55.4913C135.895 55.5016 135.895 55.5124 135.895 55.5124C135.895 55.5227 135.895 55.5227 135.895 55.5335C135.895 55.5439 135.895 55.5439 135.903 55.5439C135.903 55.5547 135.903 55.5547 135.903 55.5547C135.903 55.565 135.903 55.565 135.903 55.565C135.895 55.5758 135.895 55.5758 135.895 55.5758C135.895 55.5861 135.895 55.5861 135.895 55.597C135.895 55.6073 135.895 55.6073 135.895 55.6073C135.887 55.6181 135.887 55.6181 135.887 55.6181C135.887 55.6284 135.887 55.6284 135.887 55.6284C135.878 55.6284 135.878 55.6284 135.878 55.6284C135.878 55.6392 135.878 55.6392 135.87 55.6392C135.87 55.6496 135.87 55.6496 135.87 55.6496C135.862 55.6496 135.853 55.6599 135.853 55.6599C135.473 55.9445 135.092 56.2075 134.711 56.4819C134.637 56.5345 134.497 56.4819 134.397 56.3555C134.298 56.2395 134.281 56.092 134.356 56.0394C134.695 55.7862 135.043 55.5439 135.39 55.302C135.043 54.7003 134.695 54.1 134.356 53.5101Z" fill="#27526B"/>
<path fill-rule="evenodd" clip-rule="evenodd" d="M88.4971 29.9304C88.5717 29.8881 88.7125 29.9304 88.8115 30.0567C88.9028 30.1727 88.9273 30.3202 88.8444 30.3728C88.4971 30.6152 88.1493 30.8679 87.8104 31.1102C88.1498 31.7002 88.4971 32.3112 88.8444 32.9012C88.9273 33.0383 88.9023 33.1647 88.8115 33.1858C88.7125 33.207 88.5717 33.1224 88.4971 32.9857C88.1165 32.3324 87.7358 31.6687 87.3557 31.0153C87.3474 30.9942 87.339 30.9839 87.339 30.9731C87.3307 30.9731 87.3307 30.9731 87.3307 30.9731C87.3307 30.9731 87.3307 30.9731 87.3307 30.9627C87.3307 30.9627 87.3307 30.9627 87.3223 30.9524C87.3223 30.9524 87.3223 30.9416 87.3223 30.9313C87.314 30.9313 87.314 30.9209 87.314 30.9209C87.314 30.9209 87.314 30.9106 87.314 30.8998C87.3057 30.8895 87.3057 30.8787 87.3057 30.8787C87.3057 30.8787 87.3057 30.8683 87.3057 30.8575C87.3057 30.8575 87.3057 30.8575 87.3057 30.8472C87.3057 30.8472 87.3057 30.8472 87.3057 30.8369C87.3057 30.8369 87.3057 30.8369 87.3057 30.8266C87.3057 30.8266 87.3057 30.8157 87.314 30.8266C87.314 30.8157 87.314 30.8054 87.314 30.8054C87.314 30.8054 87.314 30.7951 87.3223 30.7951C87.3223 30.7951 87.3223 30.7951 87.3223 30.7843C87.3223 30.7843 87.3223 30.7843 87.3223 30.774C87.3223 30.774 87.3223 30.7636 87.3307 30.7636C87.3307 30.7636 87.3307 30.7636 87.339 30.774C87.339 30.774 87.339 30.774 87.339 30.7636C87.339 30.7533 87.3474 30.7533 87.3557 30.7533C87.7363 30.478 88.117 30.2145 88.4971 29.9304Z" fill="#27526B"/>
<path fill-rule="evenodd" clip-rule="evenodd" d="M83.9563 75.6661C85.1193 75.6661 86.2034 76.6803 86.378 77.931C86.5521 79.1817 85.7511 80.1959 84.5881 80.1959C83.4251 80.1959 82.3411 79.1817 82.1665 77.931C81.9918 76.6798 82.7933 75.6661 83.9563 75.6661Z" stroke="#657A82" stroke-width="0.942742" stroke-miterlimit="22.9256" stroke-linecap="round" stroke-linejoin="round"/>
<path fill-rule="evenodd" clip-rule="evenodd" d="M82.1634 76.6139C83.3264 76.6139 84.4104 77.6281 84.585 78.8787C84.7592 80.1294 83.9577 81.1436 82.7952 81.1436C81.6326 81.1436 80.5481 80.1294 80.3735 78.8787C80.1989 77.6276 81.0004 76.6139 82.1634 76.6139Z" stroke="#657A82" stroke-width="0.942742" stroke-miterlimit="22.9256" stroke-linecap="round" stroke-linejoin="round"/>
<path fill-rule="evenodd" clip-rule="evenodd" d="M80.2659 77.7156C81.4289 77.7156 82.5129 78.7298 82.6876 79.9804C82.8622 81.2311 82.0607 82.2453 80.8977 82.2453C79.7347 82.2453 78.6507 81.2311 78.476 79.9804C78.3014 78.7298 79.1029 77.7156 80.2659 77.7156Z" stroke="#657A82" stroke-width="0.942742" stroke-miterlimit="22.9256" stroke-linecap="round" stroke-linejoin="round"/>
<path fill-rule="evenodd" clip-rule="evenodd" d="M76.699 79.9155C77.862 79.9155 78.946 80.9297 79.1207 82.1804C79.2948 83.431 78.4933 84.4452 77.3308 84.4452C76.1683 84.4452 75.0838 83.431 74.9091 82.1804C74.7345 80.9297 75.536 79.9155 76.699 79.9155Z" stroke="#657A82" stroke-width="0.942742" stroke-miterlimit="22.9256" stroke-linecap="round" stroke-linejoin="round"/>
<path fill-rule="evenodd" clip-rule="evenodd" d="M74.5989 81.2365C75.7619 81.2365 76.846 82.2506 77.0206 83.5013C77.1947 84.752 76.3937 85.7662 75.2307 85.7662C74.0677 85.7662 72.9837 84.752 72.809 83.5013C72.6344 82.2506 73.4359 81.2365 74.5989 81.2365Z" stroke="#657A82" stroke-width="0.942742" stroke-miterlimit="22.9256" stroke-linecap="round" stroke-linejoin="round"/>
<path fill-rule="evenodd" clip-rule="evenodd" d="M78.3758 79.0297C79.5388 79.0297 80.6228 80.0439 80.7974 81.2945C80.9721 82.5452 80.1706 83.5594 79.0076 83.5594C77.8446 83.5594 76.7605 82.5452 76.5859 81.2945C76.4113 80.0439 77.2128 79.0297 78.3758 79.0297Z" stroke="#657A82" stroke-width="0.942742" stroke-miterlimit="22.9256" stroke-linecap="round" stroke-linejoin="round"/>
<path fill-rule="evenodd" clip-rule="evenodd" d="M72.8909 82.1863C74.0539 82.1863 75.1379 83.2005 75.3126 84.4511C75.4867 85.7018 74.6857 86.716 73.5227 86.716C72.3597 86.716 71.2757 85.7018 71.101 84.4511C70.9264 83.2005 71.7279 82.1863 72.8909 82.1863Z" stroke="#657A82" stroke-width="0.942742" stroke-miterlimit="22.9256" stroke-linecap="round" stroke-linejoin="round"/>
<path fill-rule="evenodd" clip-rule="evenodd" d="M70.9803 83.4296C72.1433 83.4296 73.2273 84.4438 73.4019 85.6944C73.5761 86.9451 72.775 87.9593 71.612 87.9593C70.449 87.9593 69.365 86.9451 69.1904 85.6944C69.0158 84.4438 69.8173 83.4296 70.9803 83.4296Z" stroke="#657A82" stroke-width="0.942742" stroke-miterlimit="22.9256" stroke-linecap="round" stroke-linejoin="round"/>
<path fill-rule="evenodd" clip-rule="evenodd" d="M88.8242 79.5798C85.9944 81.298 83.1544 83.0167 80.3212 84.7329C77.773 86.2766 75.2243 87.8232 72.6731 89.3664C72.3871 89.5394 69.5711 89.0802 69.2847 89.2538C74.4483 92.0186 79.607 94.781 84.7706 97.5458C89.9288 100.308 95.088 103.071 100.247 105.832C103.086 104.117 105.921 102.399 108.755 100.682C111.589 98.9646 114.423 97.2474 117.253 95.5292C112.094 92.7673 106.936 90.003 101.777 87.2396C96.6194 84.4768 93.9878 82.3447 88.8242 79.5798ZM88.1963 81.504C88.471 81.3393 88.937 81.3359 89.2357 81.4956C89.5344 81.6554 89.5545 81.9189 89.2799 82.0841C89.0057 82.2488 88.549 82.2522 88.2498 82.092C87.9516 81.9322 87.9221 81.6692 88.1963 81.504ZM86.3329 82.6327C86.6076 82.4666 87.0735 82.4646 87.3728 82.6249C87.672 82.7847 87.6916 83.0467 87.4169 83.2128C87.1422 83.379 86.686 83.3805 86.3868 83.2207C86.0876 83.0609 86.0587 82.7989 86.3329 82.6327ZM84.4699 83.7615C84.7421 83.5958 85.2106 83.5934 85.5093 83.7531C85.808 83.9129 85.8257 84.1759 85.5534 84.3416C85.2817 84.5073 84.8182 84.5122 84.519 84.3524C84.2197 84.1926 84.1977 83.9277 84.4699 83.7615ZM82.606 84.8902C82.8782 84.7255 83.3422 84.7221 83.6409 84.8819C83.9397 85.0416 83.9617 85.3052 83.69 85.4703C83.4183 85.635 82.9537 85.6409 82.655 85.4812C82.3563 85.3214 82.3342 85.0549 82.606 84.8902ZM80.7376 86.0219C81.0098 85.8572 81.4783 85.8543 81.7775 86.0136C82.0767 86.1733 82.0939 86.4368 81.8216 86.6015C81.5499 86.7662 81.0908 86.7692 80.7916 86.6094C80.4928 86.4501 80.4659 86.1866 80.7376 86.0219ZM78.8746 87.1507C79.1469 86.986 79.6153 86.983 79.914 87.1428C80.2128 87.3026 80.2304 87.5666 79.9582 87.7313C79.6864 87.8959 79.2273 87.9014 78.9281 87.7421C78.6294 87.5818 78.6024 87.3154 78.8746 87.1507ZM77.0112 88.2794C77.2834 88.1147 77.7519 88.1113 78.0511 88.271C78.3503 88.4308 78.3675 88.6948 78.0952 88.8595C77.8235 89.0242 77.3644 89.0301 77.0652 88.8703C76.7659 88.7101 76.739 88.4441 77.0112 88.2794ZM75.1477 89.4081C75.4195 89.2425 75.8884 89.24 76.1871 89.4003C76.4859 89.5601 76.5035 89.8226 76.2313 89.9883C75.9595 90.1539 75.5004 90.1588 75.2017 89.9991C74.903 89.8393 74.876 89.5738 75.1477 89.4081Z" fill="#D6E3F0"/>
<path fill-rule="evenodd" clip-rule="evenodd" d="M117.252 93.4186L69.2847 87.1437V89.2537L117.252 95.5291V93.4186Z" fill="#D6E3F0"/>
<path fill-rule="evenodd" clip-rule="evenodd" d="M88.0752 79.5852C85.7654 80.9858 83.4565 82.3854 81.1462 83.785C78.8374 85.1842 76.5271 86.5813 74.2173 87.9819C74.3546 88.0547 74.4822 88.1279 74.6146 88.1982C76.9244 86.7976 79.2332 85.398 81.5436 83.9984C83.8529 82.5993 86.1681 81.1992 88.4774 79.8015C88.3455 79.7307 88.213 79.658 88.0752 79.5852Z" fill="white"/>
<path fill-rule="evenodd" clip-rule="evenodd" d="M89.7627 80.4878C87.4529 81.8884 85.1441 83.288 82.8337 84.6876C80.5244 86.0868 78.2146 87.4839 75.9048 88.885C76.0323 88.9583 76.1697 89.031 76.3021 89.0984C78.6119 87.6973 80.9222 86.3006 83.2311 84.901C85.5414 83.5014 87.8502 82.1022 90.16 80.7012C90.0325 80.6333 89.8951 80.5606 89.7627 80.4878Z" fill="white"/>
<path fill-rule="evenodd" clip-rule="evenodd" d="M91.4448 81.3904C89.135 82.7915 86.8262 84.1906 84.5159 85.5902C82.207 86.9894 79.8967 88.387 77.5869 89.7876C77.7194 89.8604 77.8518 89.9307 77.9842 89.998C80.2941 88.6004 82.6034 87.1993 84.9132 85.8011C87.223 84.403 89.5323 83.0048 91.8422 81.6037C91.7092 81.5334 91.5822 81.4631 91.4448 81.3904Z" fill="white"/>
<path fill-rule="evenodd" clip-rule="evenodd" d="M93.1265 82.29C90.8167 83.6906 88.5078 85.0903 86.1975 86.4899C83.8887 87.889 81.5784 89.2862 79.2686 90.6868C79.401 90.76 79.5383 90.8298 79.6659 90.9031C81.9757 89.5025 84.2845 88.1029 86.5948 86.7032C88.9042 85.3041 91.2189 83.904 93.5287 82.5059C93.3963 82.4331 93.2584 82.3633 93.1265 82.29Z" fill="white"/>
<path fill-rule="evenodd" clip-rule="evenodd" d="M94.8135 83.1926C92.5037 84.5932 90.1943 85.9928 87.8845 87.3925C85.5752 88.7921 83.2654 90.1888 80.9556 91.5898C81.088 91.6601 81.2204 91.7359 81.3529 91.8062C83.6627 90.4051 85.9715 89.0059 88.2818 87.6058C90.5907 86.2067 92.901 84.8071 95.2108 83.4089C95.0779 83.3386 94.9454 83.2659 94.8135 83.1926Z" fill="white"/>
<path fill-rule="evenodd" clip-rule="evenodd" d="M96.4956 84.0952C94.1858 85.4963 91.877 86.8954 89.5667 88.2955C87.2578 89.6947 84.9475 91.0918 82.6377 92.4924C82.7701 92.5652 82.9026 92.6355 83.035 92.7058C85.3448 91.3052 87.6551 89.908 89.964 88.5089C92.2743 87.1088 94.5831 85.7102 96.8929 84.3091C96.76 84.2388 96.633 84.168 96.4956 84.0952Z" fill="white"/>
<path fill-rule="evenodd" clip-rule="evenodd" d="M98.1768 84.9954C95.867 86.396 93.5581 87.7956 91.2478 89.1952C88.939 90.5943 86.6287 91.9915 84.3188 93.3926C84.4513 93.4653 84.5886 93.5351 84.7211 93.6055C87.0309 92.2044 89.3412 90.8077 91.65 89.4081C93.9598 88.0085 96.2692 86.6088 98.579 85.2082C98.447 85.1379 98.3092 85.0681 98.1768 84.9954Z" fill="white"/>
<path fill-rule="evenodd" clip-rule="evenodd" d="M99.8643 85.8975C97.5545 87.2986 95.2407 88.6977 92.9304 90.0973C90.6216 91.4964 88.3113 92.8936 86.0015 94.2947C86.1388 94.365 86.2757 94.4372 86.4037 94.5105C88.7135 93.1094 91.0223 91.7103 93.3327 90.3107C95.6415 88.9115 97.9518 87.5119 100.262 86.1133C100.129 86.041 99.9967 85.9707 99.8643 85.8975Z" fill="white"/>
<path fill-rule="evenodd" clip-rule="evenodd" d="M101.546 86.8C99.2366 88.2011 96.9273 89.6003 94.6174 91.0004C92.3086 92.399 89.9983 93.7962 87.6885 95.1973C87.8258 95.2676 87.9533 95.3403 88.0853 95.4106C90.3951 94.01 92.7054 92.6129 95.0143 91.2137C97.3246 89.8141 99.6334 88.415 101.943 87.0139C101.811 86.9436 101.678 86.8733 101.546 86.8Z" fill="white"/>
<path fill-rule="evenodd" clip-rule="evenodd" d="M103.228 87.7002C100.918 89.1008 98.6094 90.5004 96.2991 91.9C93.9902 93.2992 91.6799 94.6958 89.3701 96.0974C89.5026 96.1702 89.6399 96.2405 89.7723 96.3103C92.0821 94.9092 94.3925 93.5125 96.7013 92.1129C99.0116 90.7133 101.32 89.3137 103.63 87.9131C103.497 87.8428 103.36 87.7734 103.228 87.7002Z" fill="white"/>
<path fill-rule="evenodd" clip-rule="evenodd" d="M104.91 88.6028C102.6 90.0039 100.291 91.403 97.9807 92.8031C95.6719 94.2022 93.3616 95.5994 91.0518 97C91.1891 97.0728 91.3264 97.1426 91.4589 97.2129C93.7687 95.8123 96.078 94.4141 98.3829 93.016C100.693 91.6154 103.002 90.2172 105.312 88.8157C105.18 88.7458 105.048 88.6755 104.91 88.6028Z" fill="white"/>
<path fill-rule="evenodd" clip-rule="evenodd" d="M106.597 89.5054C104.287 90.906 101.979 92.3056 99.6682 93.7052C97.3594 95.1038 95.0491 96.5015 92.7393 97.9021C92.8766 97.9719 93.009 98.0422 93.1366 98.1155C95.4464 96.7149 97.7567 95.3177 100.066 93.9186C102.376 92.5185 104.685 91.1198 106.994 89.7187C106.862 89.6484 106.73 89.5781 106.597 89.5054Z" fill="white"/>
<path fill-rule="evenodd" clip-rule="evenodd" d="M108.279 90.405C105.969 91.8056 103.66 93.2053 101.35 94.6049C99.041 96.004 96.7307 97.4007 94.4209 98.8023C94.5582 98.8721 94.6907 98.9483 94.8231 99.0151C97.1329 97.617 99.4423 96.2159 101.752 94.8177C104.062 93.4201 106.371 92.0214 108.681 90.6208C108.549 90.551 108.411 90.4783 108.279 90.405Z" fill="white"/>
<path fill-rule="evenodd" clip-rule="evenodd" d="M109.96 91.3081C107.651 92.7087 105.341 94.1054 103.031 95.505C100.726 96.9017 98.4172 98.3037 96.1074 99.7014C96.2399 99.7776 96.3767 99.8469 96.5096 99.9172C98.8195 98.5166 101.129 97.1185 103.433 95.7208C105.743 94.3202 108.052 92.9221 110.362 91.521C110.231 91.4512 110.098 91.3809 109.96 91.3081Z" fill="white"/>
<path fill-rule="evenodd" clip-rule="evenodd" d="M111.647 92.2103C109.338 93.6109 107.029 95.0105 104.719 96.4102C102.41 97.8093 100.099 99.2065 97.7896 100.607C97.9269 100.677 98.0593 100.747 98.1918 100.817C100.502 99.4193 102.81 98.0172 105.116 96.6206C107.425 95.2214 109.735 93.8243 112.045 92.4237C111.912 92.3534 111.78 92.2836 111.647 92.2103Z" fill="white"/>
<path fill-rule="evenodd" clip-rule="evenodd" d="M113.33 93.1129C111.02 94.5135 108.71 95.9107 106.401 97.3098C104.096 98.707 101.787 100.109 99.4775 101.507C99.6144 101.579 99.7468 101.65 99.8749 101.72C102.184 100.322 104.493 98.9198 106.798 97.5237C109.108 96.124 111.418 94.7269 113.727 93.3263C113.599 93.256 113.467 93.1832 113.33 93.1129Z" fill="white"/>
<path fill-rule="evenodd" clip-rule="evenodd" d="M86.2956 76.837C83.4658 78.5552 80.6263 80.2734 77.7926 81.9901C74.9574 83.7073 72.1237 85.4275 69.2847 87.1432C74.4483 89.908 79.6065 92.6699 84.7706 95.4347C89.9293 98.1971 95.088 100.959 100.247 103.722C103.086 102.006 105.921 100.288 108.755 98.5712C111.589 96.8535 114.423 95.1368 117.253 93.4181C112.094 90.6558 106.936 87.8929 101.777 85.1286C96.6184 82.3657 91.4592 79.6024 86.2956 76.837ZM85.6677 78.7617C85.9424 78.5965 86.4084 78.5936 86.7071 78.7533C87.0063 78.9136 87.026 79.1766 86.7513 79.3418C86.4766 79.507 86.0204 79.5094 85.7212 79.3502C85.423 79.1894 85.393 78.9264 85.6677 78.7617ZM83.8043 79.89C84.079 79.7238 84.545 79.7218 84.8437 79.8816C85.1429 80.0414 85.1625 80.3034 84.8878 80.47C84.6131 80.6362 84.157 80.6377 83.8577 80.4779C83.559 80.3181 83.5296 80.0566 83.8043 79.89ZM81.9413 81.0192C82.2136 80.8525 82.682 80.8511 82.9807 81.0108C83.2799 81.1711 83.2971 81.4331 83.0249 81.5993C82.7531 81.7654 82.2896 81.7704 81.9904 81.6101C81.6907 81.4498 81.6686 81.1853 81.9413 81.0192ZM80.0774 82.1474C80.3496 81.9822 80.8131 81.9793 81.1124 82.1391C81.4111 82.2993 81.4332 82.5624 81.1614 82.727C80.8892 82.8922 80.4256 82.8981 80.1264 82.7379C79.8277 82.5786 79.8056 82.3126 80.0774 82.1474ZM78.209 83.2791C78.4813 83.1144 78.9497 83.111 79.2489 83.2713C79.5481 83.431 79.5653 83.6945 79.2931 83.8592C79.0208 84.0244 78.5622 84.0269 78.263 83.8671C77.9643 83.7073 77.9373 83.4443 78.209 83.2791ZM76.3461 84.4079C76.6183 84.2432 77.0867 84.2397 77.3855 84.4C77.6847 84.5598 77.7023 84.8233 77.4296 84.9885C77.1579 85.1531 76.6987 85.159 76.3995 84.9993C76.1008 84.8385 76.0733 84.573 76.3461 84.4079ZM74.4821 85.5366C74.7544 85.3714 75.2228 85.3685 75.522 85.5282C75.8212 85.6885 75.8384 85.952 75.5662 86.1167C75.2939 86.2814 74.8353 86.2873 74.5361 86.127C74.2374 85.9677 74.2104 85.7013 74.4821 85.5366ZM72.6192 86.6653C72.8914 86.4992 73.3598 86.4972 73.6586 86.657C73.9578 86.8168 73.9749 87.0788 73.7027 87.245C73.4305 87.4116 72.9718 87.416 72.6731 87.2558C72.3739 87.096 72.3469 86.8315 72.6192 86.6653Z" fill="white"/>
<path fill-rule="evenodd" clip-rule="evenodd" d="M86.3397 77.3331C83.6477 78.9672 80.9514 80.6019 78.2536 82.235C75.5572 83.8671 72.8594 85.5003 70.1626 87.1339C75.1692 89.8157 80.1744 92.5023 85.1879 95.1845C90.198 97.8648 95.2061 100.548 100.218 103.229C102.915 101.598 105.611 99.9615 108.304 98.3299C111 96.6967 113.698 95.0646 116.39 93.4305C111.384 90.7463 106.377 88.0645 101.365 85.3803C96.3579 82.6991 91.3468 80.0149 86.3397 77.3331ZM85.6681 78.7617C85.9428 78.5966 86.4088 78.5936 86.7075 78.7534C87.0068 78.9137 87.0264 79.1767 86.7517 79.3419C86.477 79.507 86.0208 79.5095 85.7216 79.3502C85.4234 79.1895 85.3935 78.9264 85.6681 78.7617ZM83.8047 79.89C84.0794 79.7238 84.5454 79.7219 84.8441 79.8816C85.1433 80.0414 85.1629 80.3034 84.8882 80.4701C84.6136 80.6363 84.1574 80.6377 83.8582 80.478C83.5594 80.3182 83.53 80.0567 83.8047 79.89ZM81.9417 81.0192C82.214 80.8526 82.6824 80.8511 82.9811 81.0109C83.2803 81.1711 83.2975 81.4332 83.0253 81.5993C82.7535 81.7655 82.29 81.7704 81.9908 81.6102C81.6911 81.4499 81.669 81.1854 81.9417 81.0192ZM80.0778 82.1475C80.35 81.9823 80.8136 81.9794 81.1128 82.1391C81.4115 82.2994 81.4336 82.5624 81.1618 82.7271C80.8896 82.8923 80.4261 82.8982 80.1268 82.7379C79.8281 82.5786 79.806 82.3127 80.0778 82.1475ZM78.2094 83.2792C78.4817 83.1145 78.9501 83.111 79.2493 83.2713C79.5485 83.4311 79.5657 83.6946 79.2935 83.8593C79.0212 84.0245 78.5626 84.0269 78.2634 83.8671C77.9647 83.7074 77.9377 83.4444 78.2094 83.2792ZM76.3465 84.4079C76.6187 84.2432 77.0872 84.2398 77.3859 84.4001C77.6851 84.5598 77.7027 84.8233 77.43 84.9885C77.1583 85.1532 76.6992 85.1591 76.3999 84.9993C76.1012 84.8386 76.0738 84.5731 76.3465 84.4079ZM74.4825 85.5367C74.7548 85.3715 75.2232 85.3685 75.5224 85.5283C75.8216 85.6886 75.8388 85.9521 75.5666 86.1168C75.2943 86.2815 74.8357 86.2874 74.5365 86.1271C74.2378 85.9678 74.2108 85.7013 74.4825 85.5367ZM72.6196 86.6654C72.8918 86.4992 73.3602 86.4973 73.659 86.657C73.9582 86.8168 73.9753 87.0788 73.7031 87.245C73.4309 87.4117 72.9722 87.4161 72.6735 87.2558C72.3743 87.096 72.3473 86.8316 72.6196 86.6654Z" fill="white"/>
<path fill-rule="evenodd" clip-rule="evenodd" d="M117.253 93.4187V95.5292L100.247 105.832V103.722L117.253 93.4187Z" fill="#C1D2E3"/>
<path d="M82.1664 77.931C81.9922 76.6803 82.7932 75.6661 83.9562 75.6661C85.1192 75.6661 86.2033 76.6803 86.3779 77.931C86.4304 78.3086 86.3941 78.665 86.2857 78.9781" stroke="#657A82" stroke-width="0.942742" stroke-miterlimit="22.9256" stroke-linecap="round" stroke-linejoin="round"/>
<path d="M80.3729 78.8787C80.1988 77.6281 80.9998 76.6139 82.1628 76.6139C83.3258 76.6139 84.4098 77.6281 84.5844 78.8787C84.6369 79.2563 84.6006 79.6127 84.4922 79.9259" stroke="#657A82" stroke-width="0.942742" stroke-miterlimit="22.9256" stroke-linecap="round" stroke-linejoin="round"/>
<path d="M78.4754 79.9804C78.3013 78.7298 79.1023 77.7156 80.2653 77.7156C81.4283 77.7156 82.5123 78.7298 82.687 79.9804C82.7394 80.358 82.7032 80.7144 82.5947 81.0276" stroke="#657A82" stroke-width="0.942742" stroke-miterlimit="22.9256" stroke-linecap="round" stroke-linejoin="round"/>
<path d="M74.909 82.1804C74.7349 80.9297 75.5364 79.9155 76.6989 79.9155C77.8619 79.9155 78.9459 80.9297 79.1205 82.1804C79.173 82.5579 79.1367 82.9144 79.0283 83.2275" stroke="#657A82" stroke-width="0.942742" stroke-miterlimit="22.9256" stroke-linecap="round" stroke-linejoin="round"/>
<path d="M72.8084 83.5013C72.6343 82.2506 73.4353 81.2365 74.5983 81.2365C75.7613 81.2365 76.8454 82.2506 77.02 83.5013C77.0725 83.8789 77.0362 84.2353 76.9278 84.5484" stroke="#657A82" stroke-width="0.942742" stroke-miterlimit="22.9256" stroke-linecap="round" stroke-linejoin="round"/>
<path d="M76.5858 81.2945C76.4117 80.0439 77.2127 79.0297 78.3757 79.0297C79.5387 79.0297 80.6227 80.0439 80.7973 81.2945C80.8498 81.6721 80.8135 82.0285 80.7051 82.3417" stroke="#657A82" stroke-width="0.942742" stroke-miterlimit="22.9256" stroke-linecap="round" stroke-linejoin="round"/>
<path d="M71.1009 84.4511C70.9268 83.2005 71.7278 82.1863 72.8908 82.1863C74.0538 82.1863 75.1378 83.2005 75.3125 84.4511C75.3649 84.8287 75.3286 85.1851 75.2202 85.4983" stroke="#657A82" stroke-width="0.942742" stroke-miterlimit="22.9256" stroke-linecap="round" stroke-linejoin="round"/>
<path d="M69.1908 85.6944C69.0166 84.4438 69.8176 83.4296 70.9806 83.4296C72.1436 83.4296 73.2277 84.4438 73.4023 85.6944C73.4548 86.072 73.4185 86.4284 73.3101 86.7416" stroke="#657A82" stroke-width="0.942742" stroke-miterlimit="22.9256" stroke-linecap="round" stroke-linejoin="round"/>
<path fill-rule="evenodd" clip-rule="evenodd" d="M128.013 120.135L133.551 117.345L135.551 125.224L132.782 124.657L130.013 128.014L128.013 120.135Z" fill="#48505F"/>
<path opacity="0.2" fill-rule="evenodd" clip-rule="evenodd" d="M173.216 137.87C149.251 124.714 184.739 93.3827 176.08 77.8665C198.268 92.0018 165.605 124.714 173.216 137.87Z" fill="white"/>
<path opacity="0.2" fill-rule="evenodd" clip-rule="evenodd" d="M166.785 97.3461C155.314 89.9002 173.187 78.9721 168.005 71.7872C180.901 77.5784 163.543 91.7423 166.785 97.3461Z" fill="white"/>
</svg>
